<svg id="visual" viewBox="0 0 900 300" width="900" height="300" xmlns="http://www.w3.org/2000/svg" xmlns:xlink="http://www.w3.org/1999/xlink" version="1.1"><rect x="0" y="0" width="900" height="300" fill="#383838"></rect><path d="M0 175L21.5 170.5C43 166 86 157 128.8 157.8C171.7 158.7 214.3 169.3 257.2 173C300 176.7 343 173.3 385.8 164.3C428.7 155.3 471.3 140.7 514.2 135.8C557 131 600 136 642.8 135.3C685.7 134.7 728.3 128.3 771.2 129C814 129.7 857 137.3 878.5 141.2L900 145L900 0L878.5 0C857 0 814 0 771.2 0C728.3 0 685.7 0 642.8 0C600 0 557 0 514.2 0C471.3 0 428.7 0 385.8 0C343 0 300 0 257.2 0C214.3 0 171.7 0 128.8 0C86 0 43 0 21.5 0L0 0Z" fill="#ff6666"></path><path d="M0 103L21.5 110.5C43 118 86 133 128.8 136.7C171.7 140.3 214.3 132.7 257.2 131.7C300 130.7 343 136.3 385.8 134.7C428.7 133 471.3 124 514.2 126.7C557 129.3 600 143.7 642.8 148.5C685.7 153.3 728.3 148.7 771.2 145.2C814 141.7 857 139.3 878.5 138.2L900 137L900 0L878.5 0C857 0 814 0 771.2 0C728.3 0 685.7 0 642.8 0C600 0 557 0 514.2 0C471.3 0 428.7 0 385.8 0C343 0 300 0 257.2 0C214.3 0 171.7 0 128.8 0C86 0 43 0 21.5 0L0 0Z" fill="#f45a59"></path><path d="M0 91L21.5 95C43 99 86 107 128.8 109.8C171.7 112.7 214.3 110.3 257.2 109.3C300 108.3 343 108.7 385.8 103.2C428.7 97.7 471.3 86.3 514.2 80.5C557 74.7 600 74.3 642.8 80.7C685.7 87 728.3 100 771.2 102.5C814 105 857 97 878.5 93L900 89L900 0L878.5 0C857 0 814 0 771.2 0C728.3 0 685.7 0 642.8 0C600 0 557 0 514.2 0C471.3 0 428.7 0 385.8 0C343 0 300 0 257.2 0C214.3 0 171.7 0 128.8 0C86 0 43 0 21.5 0L0 0Z" fill="#e94d4c"></path><path d="M0 85L21.5 83.7C43 82.3 86 79.7 128.8 79C171.7 78.3 214.3 79.7 257.2 82C300 84.3 343 87.7 385.8 85.8C428.7 84 471.3 77 514.2 75.5C557 74 600 78 642.8 82C685.7 86 728.3 90 771.2 86.5C814 83 857 72 878.5 66.5L900 61L900 0L878.5 0C857 0 814 0 771.2 0C728.3 0 685.7 0 642.8 0C600 0 557 0 514.2 0C471.3 0 428.7 0 385.8 0C343 0 300 0 257.2 0C214.3 0 171.7 0 128.8 0C86 0 43 0 21.5 0L0 0Z" fill="#de413e"></path><path d="M0 46L21.5 50.3C43 54.7 86 63.3 128.8 62.7C171.7 62 214.3 52 257.2 52.7C300 53.3 343 64.7 385.8 64.2C428.7 63.7 471.3 51.3 514.2 45.5C557 39.7 600 40.3 642.8 45.3C685.7 50.3 728.3 59.7 771.2 64.3C814 69 857 69 878.5 69L900 69L900 0L878.5 0C857 0 814 0 771.2 0C728.3 0 685.7 0 642.8 0C600 0 557 0 514.2 0C471.3 0 428.7 0 385.8 0C343 0 300 0 257.2 0C214.3 0 171.7 0 128.8 0C86 0 43 0 21.5 0L0 0Z" fill="#d33331"></path><path d="M0 31L21.5 34.2C43 37.3 86 43.7 128.8 42.8C171.7 42 214.3 34 257.2 28.5C300 23 343 20 385.8 20.3C428.7 20.7 471.3 24.3 514.2 25.5C557 26.7 600 25.3 642.8 28.5C685.7 31.7 728.3 39.3 771.2 41.8C814 44.3 857 41.7 878.5 40.3L900 39L900 0L878.5 0C857 0 814 0 771.2 0C728.3 0 685.7 0 642.8 0C600 0 557 0 514.2 0C471.3 0 428.7 0 385.8 0C343 0 300 0 257.2 0C214.3 0 171.7 0 128.8 0C86 0 43 0 21.5 0L0 0Z" fill="#c72424"></path></svg>