<svg id="visual" viewBox="0 0 900 300" width="900" height="300" xmlns="http://www.w3.org/2000/svg" xmlns:xlink="http://www.w3.org/1999/xlink" version="1.1"><rect x="0" y="0" width="900" height="300" fill="#070707"></rect><path d="M0 123L21.5 127.5C43 132 86 141 128.8 140.2C171.7 139.3 214.3 128.7 257.2 125C300 121.3 343 124.7 385.8 133.7C428.7 142.7 471.3 157.3 514.2 162.2C557 167 600 162 642.8 162.7C685.7 163.3 728.3 169.7 771.2 169C814 168.3 857 160.7 878.5 156.8L900 153L900 301L878.5 301C857 301 814 301 771.2 301C728.3 301 685.7 301 642.8 301C600 301 557 301 514.2 301C471.3 301 428.7 301 385.8 301C343 301 300 301 257.2 301C214.3 301 171.7 301 128.8 301C86 301 43 301 21.5 301L0 301Z" fill="#ff6666"></path><path d="M0 195L21.5 187.5C43 180 86 165 128.8 161.3C171.7 157.7 214.3 165.3 257.2 166.3C300 167.3 343 161.7 385.8 163.3C428.7 165 471.3 174 514.2 171.3C557 168.7 600 154.3 642.8 149.5C685.7 144.7 728.3 149.3 771.2 152.8C814 156.3 857 158.7 878.5 159.8L900 161L900 301L878.5 301C857 301 814 301 771.2 301C728.3 301 685.7 301 642.8 301C600 301 557 301 514.2 301C471.3 301 428.7 301 385.8 301C343 301 300 301 257.2 301C214.3 301 171.7 301 128.8 301C86 301 43 301 21.5 301L0 301Z" fill="#f45a59"></path><path d="M0 207L21.5 203C43 199 86 191 128.8 188.2C171.7 185.3 214.3 187.7 257.2 188.7C300 189.7 343 189.3 385.8 194.8C428.7 200.3 471.3 211.7 514.2 217.5C557 223.3 600 223.7 642.8 217.3C685.7 211 728.3 198 771.2 195.5C814 193 857 201 878.5 205L900 209L900 301L878.5 301C857 301 814 301 771.2 301C728.3 301 685.7 301 642.8 301C600 301 557 301 514.2 301C471.3 301 428.7 301 385.8 301C343 301 300 301 257.2 301C214.3 301 171.7 301 128.8 301C86 301 43 301 21.5 301L0 301Z" fill="#e94d4c"></path><path d="M0 213L21.5 214.3C43 215.7 86 218.3 128.8 219C171.7 219.7 214.3 218.3 257.2 216C300 213.7 343 210.3 385.8 212.2C428.7 214 471.3 221 514.2 222.5C557 224 600 220 642.8 216C685.7 212 728.3 208 771.2 211.5C814 215 857 226 878.5 231.5L900 237L900 301L878.5 301C857 301 814 301 771.2 301C728.3 301 685.7 301 642.8 301C600 301 557 301 514.2 301C471.3 301 428.7 301 385.8 301C343 301 300 301 257.2 301C214.3 301 171.7 301 128.8 301C86 301 43 301 21.5 301L0 301Z" fill="#de413e"></path><path d="M0 252L21.5 247.7C43 243.3 86 234.7 128.8 235.3C171.7 236 214.3 246 257.2 245.3C300 244.7 343 233.3 385.8 233.8C428.7 234.3 471.3 246.7 514.2 252.5C557 258.3 600 257.7 642.8 252.7C685.7 247.7 728.3 238.3 771.2 233.7C814 229 857 229 878.5 229L900 229L900 301L878.5 301C857 301 814 301 771.2 301C728.3 301 685.7 301 642.8 301C600 301 557 301 514.2 301C471.3 301 428.7 301 385.8 301C343 301 300 301 257.2 301C214.3 301 171.7 301 128.8 301C86 301 43 301 21.5 301L0 301Z" fill="#d33331"></path><path d="M0 267L21.5 263.8C43 260.7 86 254.3 128.8 255.2C171.7 256 214.3 264 257.2 269.5C300 275 343 278 385.8 277.7C428.7 277.3 471.3 273.7 514.2 272.5C557 271.3 600 272.7 642.8 269.5C685.7 266.3 728.3 258.7 771.2 256.2C814 253.7 857 256.3 878.5 257.7L900 259L900 301L878.5 301C857 301 814 301 771.2 301C728.3 301 685.7 301 642.8 301C600 301 557 301 514.2 301C471.3 301 428.7 301 385.8 301C343 301 300 301 257.2 301C214.3 301 171.7 301 128.8 301C86 301 43 301 21.5 301L0 301Z" fill="#c72424"></path></svg>